<mxfile host="app.diagrams.net" modified="2022-07-05T10:10:00.485Z" agent="5.0 (Macintosh; Intel Mac OS X 10_14_3) AppleWebKit/537.36 (KHTML, like Gecko) Chrome/103.0.0.0 Safari/537.36" etag="a2Bf-ey5yTQ50jqZ4XJa" version="20.0.1" type="github">
  <diagram id="xxRskF_nQaVxz5jvN3B7" name="第 1 页">
    <mxGraphModel dx="882" dy="490" grid="1" gridSize="10" guides="1" tooltips="1" connect="1" arrows="1" fold="1" page="1" pageScale="1" pageWidth="827" pageHeight="1169" math="0" shadow="0">
      <root>
        <mxCell id="0" />
        <mxCell id="1" parent="0" />
        <mxCell id="CqERFTOop2w7uc4qEyYv-27" value="产品族" style="rounded=0;html=1;sketch=0;fontFamily=Comic Sans MS;fontSize=15;shadow=0;fillColor=#d5e8d4;dashed=1;strokeColor=#82b366;align=right;" vertex="1" parent="1">
          <mxGeometry x="217" y="89.5" width="610" height="110.5" as="geometry" />
        </mxCell>
        <mxCell id="CqERFTOop2w7uc4qEyYv-1" value="" style="endArrow=classic;html=1;rounded=0;sketch=1;fontSize=15;" edge="1" parent="1">
          <mxGeometry width="50" height="50" relative="1" as="geometry">
            <mxPoint x="200" y="480" as="sourcePoint" />
            <mxPoint x="200" y="40" as="targetPoint" />
          </mxGeometry>
        </mxCell>
        <mxCell id="CqERFTOop2w7uc4qEyYv-2" value="" style="endArrow=classic;html=1;rounded=0;sketch=1;fontSize=15;" edge="1" parent="1">
          <mxGeometry width="50" height="50" relative="1" as="geometry">
            <mxPoint x="200" y="480" as="sourcePoint" />
            <mxPoint x="827" y="480" as="targetPoint" />
          </mxGeometry>
        </mxCell>
        <mxCell id="CqERFTOop2w7uc4qEyYv-4" value="工厂" style="text;html=1;align=center;verticalAlign=middle;resizable=0;points=[];autosize=1;strokeColor=none;fillColor=none;sketch=1;fontSize=15;" vertex="1" parent="1">
          <mxGeometry x="155" y="50" width="50" height="20" as="geometry" />
        </mxCell>
        <mxCell id="CqERFTOop2w7uc4qEyYv-5" value="产品" style="text;html=1;strokeColor=none;fillColor=none;align=center;verticalAlign=middle;whiteSpace=wrap;rounded=0;sketch=1;fontSize=15;" vertex="1" parent="1">
          <mxGeometry x="767" y="480" width="60" height="30" as="geometry" />
        </mxCell>
        <mxCell id="CqERFTOop2w7uc4qEyYv-20" value="华为工厂" style="text;html=1;strokeColor=none;fillColor=none;align=center;verticalAlign=middle;whiteSpace=wrap;rounded=0;sketch=1;fontSize=15;" vertex="1" parent="1">
          <mxGeometry x="140" y="129.75" width="60" height="30" as="geometry" />
        </mxCell>
        <mxCell id="CqERFTOop2w7uc4qEyYv-21" value="小米工厂" style="text;html=1;strokeColor=none;fillColor=none;align=center;verticalAlign=middle;whiteSpace=wrap;rounded=0;sketch=1;fontSize=15;" vertex="1" parent="1">
          <mxGeometry x="140" y="255" width="60" height="30" as="geometry" />
        </mxCell>
        <mxCell id="CqERFTOop2w7uc4qEyYv-22" value="苹果工厂" style="text;html=1;strokeColor=none;fillColor=none;align=center;verticalAlign=middle;whiteSpace=wrap;rounded=0;sketch=1;fontSize=15;" vertex="1" parent="1">
          <mxGeometry x="140" y="382.5" width="60" height="30" as="geometry" />
        </mxCell>
        <mxCell id="CqERFTOop2w7uc4qEyYv-23" value="手机" style="text;html=1;strokeColor=none;fillColor=none;align=center;verticalAlign=middle;whiteSpace=wrap;rounded=0;sketch=1;fontSize=15;" vertex="1" parent="1">
          <mxGeometry x="280.83" y="490" width="60" height="30" as="geometry" />
        </mxCell>
        <mxCell id="CqERFTOop2w7uc4qEyYv-25" value="笔记本电脑" style="text;html=1;strokeColor=none;fillColor=none;align=center;verticalAlign=middle;whiteSpace=wrap;rounded=0;sketch=1;fontSize=15;" vertex="1" parent="1">
          <mxGeometry x="465" y="490" width="60" height="30" as="geometry" />
        </mxCell>
        <mxCell id="CqERFTOop2w7uc4qEyYv-26" value="平板电脑" style="text;html=1;strokeColor=none;fillColor=none;align=center;verticalAlign=middle;whiteSpace=wrap;rounded=0;sketch=1;fontSize=15;" vertex="1" parent="1">
          <mxGeometry x="649.17" y="490" width="60" height="30" as="geometry" />
        </mxCell>
        <mxCell id="CqERFTOop2w7uc4qEyYv-11" value="华为手机" style="rounded=0;whiteSpace=wrap;html=1;sketch=1;fontSize=15;" vertex="1" parent="1">
          <mxGeometry x="240" y="100" width="141.66666666666669" height="85" as="geometry" />
        </mxCell>
        <mxCell id="CqERFTOop2w7uc4qEyYv-12" value="小米手机" style="rounded=0;whiteSpace=wrap;html=1;sketch=1;fontSize=15;" vertex="1" parent="1">
          <mxGeometry x="240" y="227.5" width="141.66666666666669" height="85" as="geometry" />
        </mxCell>
        <mxCell id="CqERFTOop2w7uc4qEyYv-13" value="苹果手机" style="rounded=0;whiteSpace=wrap;html=1;sketch=1;fontSize=15;" vertex="1" parent="1">
          <mxGeometry x="240" y="355" width="141.66666666666669" height="85" as="geometry" />
        </mxCell>
        <mxCell id="CqERFTOop2w7uc4qEyYv-14" value="华为笔记本" style="rounded=0;whiteSpace=wrap;html=1;sketch=1;fontSize=15;" vertex="1" parent="1">
          <mxGeometry x="424.1666666666667" y="100" width="141.66666666666669" height="85" as="geometry" />
        </mxCell>
        <mxCell id="CqERFTOop2w7uc4qEyYv-15" value="小米笔记本" style="rounded=0;whiteSpace=wrap;html=1;sketch=1;fontSize=15;" vertex="1" parent="1">
          <mxGeometry x="424.1666666666667" y="227.5" width="141.66666666666669" height="85" as="geometry" />
        </mxCell>
        <mxCell id="CqERFTOop2w7uc4qEyYv-16" value="苹果笔记本" style="rounded=0;whiteSpace=wrap;html=1;sketch=1;fontSize=15;" vertex="1" parent="1">
          <mxGeometry x="424.1666666666667" y="355" width="141.66666666666669" height="85" as="geometry" />
        </mxCell>
        <mxCell id="CqERFTOop2w7uc4qEyYv-17" value="华为平板" style="rounded=0;whiteSpace=wrap;html=1;sketch=1;fontSize=15;" vertex="1" parent="1">
          <mxGeometry x="608.3333333333334" y="100" width="141.66666666666669" height="85" as="geometry" />
        </mxCell>
        <mxCell id="CqERFTOop2w7uc4qEyYv-18" value="小米平板" style="rounded=0;whiteSpace=wrap;html=1;sketch=1;fontSize=15;" vertex="1" parent="1">
          <mxGeometry x="608.3333333333334" y="227.5" width="141.66666666666669" height="85" as="geometry" />
        </mxCell>
        <mxCell id="CqERFTOop2w7uc4qEyYv-19" value="苹果平板" style="rounded=0;whiteSpace=wrap;html=1;sketch=1;fontSize=15;" vertex="1" parent="1">
          <mxGeometry x="608.3333333333334" y="355" width="141.66666666666669" height="85" as="geometry" />
        </mxCell>
      </root>
    </mxGraphModel>
  </diagram>
</mxfile>
